<?xml version="1.0" standalone="no"?><!DOCTYPE svg PUBLIC "-//W3C//DTD SVG 1.1//EN" "http://www.w3.org/Graphics/SVG/1.1/DTD/svg11.dtd"><svg class="icon" width="64px" height="64.00px" viewBox="0 0 1024 1024" version="1.1" xmlns="http://www.w3.org/2000/svg"><path fill="#bfbfbf" d="M418.3 817.8H245.4c-29.7 0-40.5-3.1-51.4-8.9-10.9-5.8-19.4-14.3-25.2-25.2-5.8-10.9-8.9-21.6-8.9-51.4v-348L510 84.3l350.1 300.1v348c0 29.7-3.1 40.5-8.9 51.4-5.8 10.9-14.3 19.4-25.2 25.2-10.9 5.8-21.6 8.9-51.4 8.9H601.8V627.1c0-14.9-1.5-20.3-4.5-25.7-2.9-5.4-7.2-9.7-12.6-12.6-5.4-2.9-10.8-4.5-25.7-4.5h-97.9c-14.9 0-20.3 1.5-25.7 4.5-5.4 2.9-9.7 7.2-12.6 12.6-2.9 5.4-4.5 10.8-4.5 25.7v190.7z" /></svg>